<svg width="14" height="14" viewBox="0 0 14 14" fill="none" xmlns="http://www.w3.org/2000/svg">
<path fill-rule="evenodd" clip-rule="evenodd" d="M5.7166 0.636907C5.71672 0.504198 5.67542 0.374772 5.59849 0.266742C5.52156 0.158713 5.41284 0.0774849 5.28755 0.0344262C5.16226 -0.00863255 5.02666 -0.0113673 4.89974 0.0266046C4.77283 0.0645766 4.66093 0.141355 4.57972 0.246195L0.133818 5.97324C0.0470881 6.08494 0 6.22243 0 6.36395C0 6.50547 0.0470881 6.64296 0.133818 6.75466L4.57972 12.4817C4.66093 12.5865 4.77283 12.6633 4.89974 12.7013C5.02666 12.7393 5.16226 12.7365 5.28755 12.6935C5.41284 12.6504 5.52156 12.5692 5.59849 12.4612C5.67542 12.3531 5.71672 12.2237 5.7166 12.091V9.552C9.13296 9.62327 10.7741 10.273 11.5985 10.9793C12.3823 11.6506 12.5258 12.4403 12.6751 13.2676L12.7138 13.4808C12.7423 13.6333 12.8255 13.7701 12.9476 13.8655C13.0698 13.9609 13.2225 14.0083 13.3771 13.9988C13.5317 13.9893 13.6775 13.9234 13.7871 13.8137C13.8966 13.704 13.9624 13.558 13.972 13.4031C14.0806 11.6545 13.9174 9.12057 12.6846 7.00092C11.488 4.94364 9.33303 3.36171 5.7166 3.19626V0.636907Z" fill="#C4C4C4"/>
</svg>
